<svg width="100%" height="100%" viewBox="0 0 427 427" version="1.1" xmlns="http://www.w3.org/2000/svg" xmlnsXlink="http://www.w3.org/1999/xlink" xmlSpace="preserve" xmlnsSerif="http://www.serif.com/" style="fill-rule:evenodd;clip-rule:evenodd;stroke-linejoin:round;stroke-miterlimit:2;"><path d="M144.399,353.702c-0,5.523 2.955,10 6.602,10l124.794,0c3.645,0 6.603,-4.477 6.603,-10c0,-5.523 -2.958,-10 -6.603,-10l-124.794,0c-3.647,0 -6.602,4.477 -6.602,10Z" style="fill-rule:nonzero;"/><path d="M144.399,164.703c-0,5.523 2.955,10 6.603,10l124.793,-0c3.645,-0 6.603,-4.477 6.603,-10c0,-5.524 -2.958,-10 -6.603,-10l-124.793,-0c-3.648,-0 -6.603,4.476 -6.603,10Z" style="fill-rule:nonzero;"/><path d="M272.398,184.202c-5.523,0 -10,3.213 -10,7.177l0,135.646c0,3.962 4.477,7.177 10,7.177c5.524,0 10,-3.215 10,-7.177l0,-135.646c0,-3.964 -4.476,-7.177 -10,-7.177Z" style="fill-rule:nonzero;"/><path d="M154.399,184.202c-5.524,0 -10,3.213 -10,7.177l-0,135.646c-0,3.962 4.476,7.177 10,7.177c5.523,0 10,-3.215 10,-7.177l-0,-135.646c-0,-3.964 -4.477,-7.177 -10,-7.177Z" style="fill-rule:nonzero;"/><path d="M213.398,184.202c-5.523,0 -10,3.213 -10,7.177l0,135.646c0,3.962 4.477,7.177 10,7.177c5.524,0 10,-3.215 10,-7.177l0,-135.646c0,-3.964 -4.476,-7.177 -10,-7.177Z" style="fill-rule:nonzero;"/><path d="M68.399,127.121l-0,246.378c-0,14.562 5.34,28.238 14.668,38.051c9.285,9.839 22.207,15.425 35.73,15.449l189.203,-0c13.527,-0.024 26.449,-5.61 35.73,-15.449c9.328,-9.813 14.668,-23.489 14.668,-38.051l-0,-246.378c18.543,-4.922 30.558,-22.836 28.078,-41.863c-2.484,-19.024 -18.691,-33.254 -37.879,-33.258l-51.199,-0l0,-12.5c0.059,-10.512 -4.097,-20.606 -11.539,-28.031c-7.441,-7.422 -17.551,-11.555 -28.062,-11.469l-88.797,-0c-10.512,-0.086 -20.621,4.047 -28.062,11.469c-7.442,7.425 -11.598,17.519 -11.539,28.031l-0,12.5l-51.199,-0c-19.188,0.004 -35.395,14.234 -37.879,33.258c-2.481,19.027 9.535,36.941 28.078,41.863Zm239.601,279.878l-189.203,-0c-17.097,-0 -30.398,-14.688 -30.398,-33.5l-0,-245.499l249.999,-0l0,245.499c0,18.812 -13.301,33.5 -30.398,33.5Zm-158.601,-367.499c-0.067,-5.207 1.98,-10.219 5.675,-13.895c3.692,-3.675 8.715,-5.695 13.926,-5.605l88.797,-0c5.211,-0.09 10.234,1.93 13.925,5.605c3.696,3.672 5.743,8.688 5.676,13.895l0,12.5l-127.999,-0l-0,-12.5Zm-71.199,32.5l270.397,-0c9.942,-0 18,8.058 18,18c0,9.941 -8.058,18 -18,18l-270.397,-0c-9.942,-0 -18,-8.059 -18,-18c-0,-9.942 8.058,-18 18,-18Z" style="fill-rule:nonzero;"/></svg>